M48
FMAT,2
METRIC,TZ
T11C0.7
T21C3.0
T31C0.6
T41C1.2
T01C0.5
%
G90
G05
M71
T11
X51.36988Y147.80092
X59.06988Y147.80092
X39.63301Y187.89891
X45.63302Y187.89891
T21
X3.77955Y163.97353
X61.77955Y163.97353
X3.77955Y114.97353
X61.77955Y114.97353
T31
X72.39362Y188.54316
X68.39362Y188.54316
X72.39362Y188.54316
X68.39362Y188.54316
T41
X79.70945Y176.23353
X79.70945Y172.42353
T01
X36.87946Y155.56985
X40.30561Y156.17759
X39.96034Y170.45917
X41.86715Y158.07812
X64.40756Y186.23119
X48.85056Y184.50042
X12.19678Y170.21682
X62.75902Y179.02415
X48.28637Y174.28871
M30